<?xml version="1.0" encoding="UTF-8"?>
<svg version="1.1" xmlns="http://www.w3.org/2000/svg" width="1920" height="1920">
<path d="M0 0 C1.93457031 0.22698975 1.93457031 0.22698975 4 1 C7.65465714 7.01379412 9.43653534 13.35142904 11.25 20.109375 C11.8581746 22.31321283 12.46658235 24.51698632 13.07519531 26.72070312 C13.38896118 27.86804932 13.70272705 29.01539551 14.02600098 30.19750977 C35.80326172 109.62624045 68.2666406 186.00284907 109.17871094 257.51245117 C113.04054167 264.26480015 116.76267897 271.08183026 120.4375 277.9375 C126.40234148 289.02721579 132.68832804 299.90631592 139.08740234 310.75 C141.13752229 314.23368608 143.17364941 317.72528132 145.20703125 321.21875 C152.58630285 333.88630708 160.0633799 346.47596393 167.83203125 358.91015625 C171.22814097 364.34837115 174.55192936 369.82945659 177.875 375.3125 C188.56124263 392.91670219 199.55233209 410.33128676 210.56591797 427.73193359 C211.995554 429.99296844 213.4220967 432.25592436 214.84765625 434.51953125 C221.16377869 444.54491875 227.53219732 454.53588707 233.92553711 464.51220703 C238.40238387 471.4989711 242.86291819 478.49584633 247.3125 485.5 C251.73959269 492.46601556 256.1952056 499.41214001 260.68798828 506.3359375 C266.80953174 515.77745317 272.85852559 525.26559631 278.91943359 534.74609375 C281.61567625 538.96288818 284.31370783 543.17853605 287.01196289 547.39404297 C288.33810139 549.46590026 289.66411036 551.53784047 290.98999023 553.60986328 C294.37176617 558.89469025 297.75496075 564.17860057 301.140625 569.4609375 C314.2309977 589.88898391 327.17006254 610.40738237 340 631 C340.54769043 631.87881836 341.09538086 632.75763672 341.65966797 633.66308594 C371.29521562 681.25874233 400.38679258 729.38420612 426.03515625 779.26171875 C427.80313675 782.69905157 429.59119022 786.12152425 431.43359375 789.51953125 C471.85482227 864.18262171 499.85796377 944.2767142 498 1030 C497.98743164 1030.8367627 497.97486328 1031.67352539 497.96191406 1032.53564453 C496.3811829 1125.42779546 468.1612208 1216.94040238 416.6875 1294.25 C415.95909912 1295.34401123 415.23069824 1296.43802246 414.48022461 1297.56518555 C409.54685397 1304.88842817 404.3646099 1311.98747178 399 1319 C398.48961182 1319.66902344 397.97922363 1320.33804687 397.45336914 1321.02734375 C383.95286005 1338.61079932 369.14008848 1354.92183528 353.52966309 1370.64556885 C352.48540045 1371.69787782 351.44262206 1372.75166221 350.40148926 1373.80706787 C344.34563364 1379.9370978 338.19139926 1385.6868708 331.41992188 1391.04150391 C329.02981768 1392.9758679 326.79335624 1395.01031765 324.5625 1397.125 C316.57039431 1404.39401041 307.71125264 1410.63148229 299 1417 C298.26297852 1417.54092285 297.52595703 1418.0818457 296.76660156 1418.63916016 C225.55689602 1470.6821103 140.90860874 1500.09608182 25 1510 C23.91396484 1510.02046387 22.82792969 1510.04092773 21.70898438 1510.06201172 C-59.25104483 1511.37940864 -141.65080529 1496.40520909 -216 1464 C-216.96389648 1463.58540527 -217.92779297 1463.17081055 -218.92089844 1462.74365234 C-233.07062376 1456.63277302 -246.6024511 1449.60995253 -260 1442 C-260.76683105 1441.566875 -261.53366211 1441.13375 -262.32373047 1440.6875 C-301.80808063 1418.28999581 -340.72095626 1388.66854656 -370.2734375 1354.00390625 C-372.21741046 1351.74766614 -374.23323518 1349.56636107 -376.25 1347.375 C-381.83286583 1341.17076967 -386.94997897 1334.63785648 -392 1328 C-392.54317871 1327.28666504 -393.08635742 1326.57333008 -393.64599609 1325.83837891 C-406.65005297 1308.67421243 -418.43024943 1290.7619816 -429 1272 C-429.74999268 1270.6704126 -429.74999268 1270.6704126 -430.51513672 1269.31396484 C-470.47545512 1198.03175503 -493.20234438 1116.07389876 -493.25 1034.25 C-493.25067474 1033.20708801 -493.25134949 1032.16417603 -493.25204468 1031.08966064 C-493.23152025 1011.0957943 -491.98859295 991.94328251 -487.625 972.375 C-487.44042236 971.53888184 -487.25584473 970.70276367 -487.06567383 969.84130859 C-485.76528934 964.58695766 -484.01221256 958.8254757 -480 955 C-477.60069275 954.69363403 -477.60069275 954.69363403 -475 955 C-470.18283106 959.17724288 -467.64937189 965.39615452 -465.61328125 971.296875 C-465.32503983 972.10598328 -465.0367984 972.91509155 -464.73982239 973.74871826 C-461.11089592 984.1914811 -458.20774928 994.86064383 -455.23651123 1005.50427246 C-440.08793938 1059.59561209 -422.87983422 1113.07290553 -399 1164 C-398.24058105 1165.63412842 -398.24058105 1165.63412842 -397.46582031 1167.30126953 C-380.02353525 1204.75681231 -359.02646968 1239.86044291 -333 1272 C-332.50274414 1272.61584961 -332.00548828 1273.23169922 -331.49316406 1273.86621094 C-324.29688664 1282.68636292 -316.39267235 1290.80766764 -308.375 1298.875 C-307.89362579 1299.36173187 -307.41225159 1299.84846375 -306.91629028 1300.34994507 C-300.29404444 1307.02809033 -293.38968274 1313.17764633 -286 1319 C-285.39269043 1319.48694336 -284.78538086 1319.97388672 -284.15966797 1320.47558594 C-270.95197789 1331.03341819 -256.91068672 1340.04739088 -242 1348 C-241.35981934 1348.34272949 -240.71963867 1348.68545898 -240.06005859 1349.03857422 C-205.59104144 1367.31879174 -165.69400785 1378.50406626 -127 1383 C-125.92238403 1383.13921875 -125.92238403 1383.13921875 -124.82299805 1383.28125 C-52.2320354 1391.81150686 16.48009664 1361.26876301 73 1318 C73.64404785 1317.50902832 74.2880957 1317.01805664 74.95166016 1316.51220703 C86.67653918 1307.54284486 97.84606853 1297.93727949 108.76953125 1288.01171875 C110.84188166 1286.14261111 112.94519825 1284.3178013 115.0625 1282.5 C118.73478981 1279.30798954 122.14416845 1275.89754945 125.53125 1272.40625 C127.46528492 1270.52117799 129.41354128 1268.77680211 131.46484375 1267.02734375 C137.00787632 1262.21545927 142.14930618 1257.00013165 147.32739258 1251.80297852 C149.058947 1250.066064 150.79578359 1248.33456111 152.53320312 1246.60351562 C157.69188063 1241.44761046 162.75432014 1236.28101398 167.48999023 1230.72827148 C170.01422341 1227.83917744 172.75737696 1225.17970745 175.5 1222.5 C179.66560615 1218.38656768 183.66870065 1214.22256425 187.4609375 1209.7578125 C189.60171177 1207.31276574 191.92068549 1205.06889987 194.23828125 1202.79296875 C196.75703893 1200.22953244 199.08469801 1197.51418861 201.42578125 1194.7890625 C202.67953467 1193.3642013 204.01518995 1192.01152557 205.375 1190.6875 C208.79156225 1187.13953151 208.33463533 1182.6153579 208.2734375 1177.9765625 C207.49292019 1169.48007411 203.31575854 1162.59532981 197 1157 C188.73045819 1151.01721251 181.11819043 1148.76405556 171.06982422 1148.41772461 C170.16828047 1148.38099357 169.26673672 1148.34426252 168.33787346 1148.30641842 C155.29019932 1147.81012049 142.23279598 1147.59619187 129.17835283 1147.35849237 C126.03551095 1147.30087194 122.89270856 1147.24122628 119.74990308 1147.18165803 C111.21966196 1147.02008856 102.6893388 1146.86330217 94.15896928 1146.70867467 C87.89346358 1146.59501156 81.62799898 1146.4792609 75.36254883 1146.36257935 C34.50417404 1145.60304117 -6.35404664 1144.93330734 -47.21683741 1144.46227479 C-50.02303901 1144.42987252 -52.82923656 1144.39713827 -55.6354332 1144.36430931 C-72.66893571 1144.1653061 -89.70244885 1143.97101051 -106.73635185 1143.80939412 C-113.38687646 1143.74600625 -120.0373158 1143.67633469 -126.68772614 1143.60192466 C-131.26325166 1143.55118986 -135.83874621 1143.50889197 -140.41441357 1143.47333223 C-143.82650098 1143.4443469 -147.23841159 1143.40274741 -150.65039062 1143.36303711 C-151.87065886 1143.35623208 -153.09092709 1143.34942705 -154.34817314 1143.34241581 C-156.00724284 1143.31956343 -156.00724284 1143.31956343 -157.6998291 1143.29624939 C-158.65787697 1143.28724074 -159.61592484 1143.2782321 -160.60300446 1143.26895046 C-163 1143 -163 1143 -166 1141 C-166.9852739 1134.57108779 -164.54393399 1130.35338839 -161.5 1124.9375 C-160.88511719 1123.80151367 -160.88511719 1123.80151367 -160.2578125 1122.64257812 C-157.94475041 1118.39845966 -155.54391427 1114.2074182 -153.12678528 1110.0218811 C-148.78267139 1102.48528192 -144.75445622 1094.8183613 -140.8125 1087.0625 C-134.66230743 1075.04318515 -128.17269241 1063.2563115 -121.45068359 1051.54589844 C-119.67114148 1048.42286492 -117.93462013 1045.27755575 -116.20361328 1042.12744141 C-107.02575113 1025.42857254 -97.1188543 1009.14566946 -87.28833008 992.82592773 C-86.70075928 991.84954346 -86.11318848 990.87315918 -85.5078125 989.8671875 C-84.93063477 988.91038086 -84.35345703 987.95357422 -83.75878906 986.96777344 C-82.52826784 984.89139698 -81.3239226 982.79938592 -80.13964844 980.69628906 C-79.53411133 979.6234668 -78.92857422 978.55064453 -78.3046875 977.4453125 C-77.76569824 976.47352051 -77.22670898 975.50172852 -76.67138672 974.50048828 C-74.92183247 971.88305699 -73.67298188 970.62789046 -71 969 C-68.42066765 968.63364983 -68.42066765 968.63364983 -65.44528198 968.64596558 C-64.315177 968.64328674 -63.18507202 968.64060791 -62.02072144 968.6378479 C-60.78524567 968.65020477 -59.5497699 968.66256165 -58.27685547 968.67529297 C-56.97250549 968.67646118 -55.66815552 968.67762939 -54.32427979 968.67883301 C-50.74998002 968.6822426 -47.17599578 968.70399837 -43.601789 968.72874975 C-39.86314181 968.75123206 -36.12447597 968.75592173 -32.38577271 968.76223755 C-25.3050232 968.77672333 -18.22441568 968.8056549 -11.14373982 968.84048474 C1.5454722 968.90243341 14.23476964 968.93995594 26.92408836 968.97207749 C31.379325 968.98392932 35.83447906 969.00213401 40.28966928 969.02559257 C42.39100637 969.03607418 44.49233888 969.04437591 46.59368896 969.05175781 C49.15973578 969.06097548 51.72577284 969.07389528 54.29177856 969.09109497 C55.4162439 969.09405579 56.54070923 969.0970166 57.69924927 969.10006714 C58.68037249 969.10488539 59.6614957 969.10970364 60.67234993 969.11466789 C63.02482022 969.15536605 63.02482022 969.15536605 65 968 C64.49357255 962.84482824 63.36187161 959.15735042 60.875 954.625 C60.53154541 953.99762939 60.18809082 953.37025879 59.83422852 952.72387695 C55.74321549 945.35866467 51.3443099 938.16853762 46.98608398 930.9597168 C41.07979481 921.18221264 35.36836342 911.29970295 29.6796875 901.39453125 C26.17125471 895.28660998 22.62083123 889.20394204 19.0625 883.125 C2.58965422 854.93512579 -13.3959166 826.47984567 -28.89453125 797.7421875 C-30.89750161 794.03048954 -32.91462154 790.32726629 -34.94921875 786.6328125 C-42.30004312 773.27638058 -49.33837995 759.77198447 -56.3074646 746.2141571 C-58.16737997 742.60092762 -60.04874672 739.00013135 -61.953125 735.41015625 C-76.12864742 708.66351497 -89.27518597 681.29442111 -101.75341797 653.71582031 C-102.56299999 651.95205408 -103.39927832 650.20021149 -104.26611328 648.46386719 C-105.86091334 645.19258718 -106.97973671 642.75480751 -107.078125 639.08984375 C-105.41937093 634.33595076 -103.12669008 629.99354762 -100.75 625.5625 C-100.2142334 624.54969971 -99.6784668 623.53689941 -99.12646484 622.4934082 C-94.88703316 614.5310832 -90.4719199 606.67302955 -85.99902344 598.84008789 C-81.88430501 591.61981805 -77.91775505 584.32878705 -74 577 C-69.06540866 567.77380746 -64.00299801 558.63404615 -58.82421875 549.54296875 C-54.95960455 542.74237337 -51.20648312 535.88791821 -47.5 529 C-42.71584033 520.11101981 -37.81238378 511.29920891 -32.81567383 502.52807617 C-29.54787222 496.77961487 -26.36000334 490.9951232 -23.22705078 485.17211914 C-10.71081705 461.92399898 -10.71081705 461.92399898 -3 455 C0.41735455 454.30387222 2.58134079 454.26010971 5.72265625 455.8984375 C11.8358305 460.49376211 15.30171554 467.4715334 19 474 C19.52255371 474.91096436 19.52255371 474.91096436 20.05566406 475.84033203 C27.96168581 489.6561588 35.29295989 503.79664322 42.74311829 517.86125183 C48.1745268 528.10959573 53.66484243 538.32638717 59.1484375 548.546875 C61.03851084 552.0718219 62.92598276 555.59814928 64.8125 559.125 C68.536331 566.08619793 72.26585025 573.04433077 76 580 C76.56460938 581.05203613 77.12921875 582.10407227 77.7109375 583.18798828 C83.44413532 593.8586672 89.2453949 604.47943535 95.25 615 C100.90961774 624.91949847 106.27029483 634.98245705 111.59838867 645.08203125 C116.69205284 654.73103254 121.91423836 664.28741712 127.328125 673.76171875 C131.14876449 680.45738945 134.8477692 687.21112819 138.5 694 C143.22567141 702.77695455 148.06229118 711.48201203 152.98657227 720.14892578 C157.18015212 727.53388568 161.31936086 734.94772706 165.4375 742.375 C171.44316541 753.20399192 177.47740485 764.01647143 183.53515625 774.81640625 C185.86247143 778.9661832 188.18219515 783.12007154 190.49609375 787.27734375 C196.83714753 798.65802005 203.28939193 809.95987869 209.890625 821.19165039 C214.240349 828.62263208 218.38446721 836.14853849 222.47021484 843.72705078 C226.09592448 850.42094408 229.8858168 857.00378546 233.75 863.5625 C238.99062785 872.45992151 244.04178216 881.44369373 249 890.5 C254.46671815 900.48252447 260.07517199 910.36689992 265.84716797 920.17700195 C270.6434676 928.34354516 275.28361575 936.59126655 279.89550781 944.86303711 C284.98668248 953.99196628 290.16060542 963.07126421 295.36035156 972.13867188 C298.15595259 977.0172371 300.94407334 981.90007575 303.73303223 986.78244019 C304.75243984 988.56677059 305.77216437 990.3509195 306.79199219 992.13500977 C310.22674472 998.1440418 313.65889773 1004.15453435 317.0859375 1010.16796875 C321.04729999 1017.11772019 325.01877104 1024.0616066 329 1031 C329.60054199 1032.04671875 330.20108398 1033.0934375 330.81982422 1034.171875 C337.98240377 1046.62784782 345.35140853 1058.92610452 353.02758789 1071.07324219 C353.61918701 1072.00942383 354.21078613 1072.94560547 354.8203125 1073.91015625 C355.37404541 1074.78615479 355.92777832 1075.66215332 356.49829102 1076.56469727 C357.82311105 1078.71314139 359.06880178 1080.88283856 360.28515625 1083.09375 C361.7529736 1086.09393053 361.7529736 1086.09393053 364.3125 1087.4375 C372.3424944 1089.1181965 378.90026721 1087.11527155 385.796875 1082.90234375 C394.62091555 1076.19334385 397.76053184 1065.07801554 399.59375 1054.609375 C406.9385424 989.35371947 364.86797859 916.00298449 333.63867188 861.8671875 C331.95723369 858.9251717 330.30989004 855.96639363 328.671875 853 C316.70996087 831.34587709 303.85797729 810.25060562 290.53417969 789.40869141 C288.92133646 786.87649673 287.32345234 784.33525086 285.7265625 781.79296875 C276.81030284 767.66213687 267.53545249 753.78535567 258.1875 739.9375 C257.56811554 739.0199292 256.94873108 738.1023584 256.31057739 737.15698242 C241.85174705 715.74588847 241.85174705 715.74588847 227.0625 694.5625 C226.05201904 693.13546219 225.04160432 691.70837748 224.03125 690.28125 C223.52980469 689.57355469 223.02835938 688.86585938 222.51171875 688.13671875 C221.01465927 686.02071995 219.52216813 683.90157948 218.03125 681.78125 C206.811589 665.83051798 195.34769964 650.06530117 183.75732422 634.38232422 C182.0224021 632.0303695 180.29344856 629.67415161 178.56640625 627.31640625 C171.8148432 618.10693629 164.96809796 608.97787564 158.03173828 599.90673828 C152.86426694 593.14659578 147.75041281 586.34808332 142.65576172 579.53295898 C138.72249871 574.27808234 134.75452538 569.05130591 130.76489258 563.83911133 C124.45544558 555.59582513 118.26548861 547.29882229 112.28662109 538.81347656 C109.75984301 535.25201402 107.187576 531.72323938 104.625 528.1875 C98.8639128 520.22349562 93.17313701 512.21251771 87.52587891 504.16748047 C86.01744717 502.02478336 84.49985224 499.88884735 82.98046875 497.75390625 C65.89395067 473.65949288 49.56657206 449.08056664 34.56689453 423.63476562 C23.74528726 403.75026224 23.74528726 403.75026224 6.6875 390.125 C1.24033605 389.87164354 -3.39115857 392.78996786 -7.36328125 396.32421875 C-10.71620199 399.75716147 -13.65566044 403.53709231 -16.63720703 407.29150391 C-19.2340642 410.54711237 -21.87095981 413.77037323 -24.5 417 C-25.6238491 418.38268963 -26.74754946 419.76550017 -27.87109375 421.1484375 C-28.40718262 421.80811523 -28.94327148 422.46779297 -29.49560547 423.14746094 C-30.80186751 424.75601602 -32.10618617 426.36614889 -33.41015625 427.9765625 C-38.03506636 433.66746823 -42.77077101 439.25164307 -47.55664062 444.80688477 C-51.35519421 449.22421547 -55.05954475 453.71020921 -58.73046875 458.234375 C-61.24099886 461.29367847 -63.80516192 464.30309621 -66.375 467.3125 C-70.17605008 471.77068526 -73.84601964 476.30909745 -77.4375 480.9375 C-81.64020224 486.35266456 -86.02404627 491.57195417 -90.51708984 496.74755859 C-94.47176655 501.32618688 -98.21865868 506.04035503 -101.92578125 510.8203125 C-105.0230609 514.79871481 -108.2202543 518.67101459 -111.5 522.5 C-115.71052629 527.42060089 -119.75495338 532.44588856 -123.73217773 537.55639648 C-127.2813242 542.1093673 -130.90857447 546.59332837 -134.5625 551.0625 C-139.32958734 556.90127437 -143.97905346 562.81211678 -148.55078125 568.8046875 C-151.10343769 572.14728068 -153.7062251 575.44915354 -156.3125 578.75 C-162.01825061 585.98924035 -167.61615847 593.30864294 -173.20068359 600.64160156 C-175.1045029 603.13697395 -177.01472742 605.62735203 -178.92578125 608.1171875 C-186.93160193 618.56216115 -194.77436924 629.10147214 -202.42773438 639.80712891 C-204.54438132 642.75925979 -206.6799092 645.69751645 -208.81445312 648.63671875 C-211.55488135 652.41593745 -214.27957166 656.20636762 -217 660 C-217.49951172 660.69561035 -217.99902344 661.3912207 -218.51367188 662.10791016 C-227.31741396 674.41196973 -235.72420343 686.98180799 -244.125 699.5625 C-244.67199554 700.3803598 -245.21899109 701.1982196 -245.78256226 702.04086304 C-256.60252143 718.23054912 -267.12695341 734.58810949 -277 751.375 C-277.33450165 751.94261047 -277.6690033 752.51022095 -278.01364136 753.09503174 C-280.34965366 757.0591364 -282.67573094 761.02899627 -285 765 C-285.81235107 766.38058594 -285.81235107 766.38058594 -286.64111328 767.7890625 C-295.03534919 782.07896073 -302.69792191 796.72102108 -310.20996094 811.48730469 C-311.85112517 814.70785447 -313.50601373 817.92093517 -315.1640625 821.1328125 C-344.47916675 878.32286327 -363.44699117 939.37080319 -377.75527954 1001.81307983 C-380.4103037 1013.39080058 -383.17033266 1024.91902397 -386.3125 1036.375 C-386.76423584 1038.03801147 -386.76423584 1038.03801147 -387.22509766 1039.73461914 C-393.27105419 1061.27105419 -393.27105419 1061.27105419 -400 1068 C-402.25 1067.9375 -402.25 1067.9375 -405 1067 C-412.30107608 1057.2652319 -413.98341956 1043.36650238 -416.125 1031.6875 C-416.31826874 1030.64228683 -416.31826874 1030.64228683 -416.51544189 1029.57595825 C-433.05387156 939.32305491 -406.98387363 843.67838988 -337 668 C-336.40731595 666.70332129 -335.81470257 665.40661028 -335.22216797 664.10986328 C-327.9577133 648.23527585 -320.38481251 632.51159547 -312.75 616.8125 C-312.33761078 615.96271576 -311.92522156 615.11293152 -311.50033569 614.23739624 C-306.31992513 603.57377764 -300.96169647 593.02498733 -295.40625 582.55200195 C-293.14443434 578.28553365 -290.92627255 573.99798197 -288.7265625 569.69921875 C-288.38954315 569.04103149 -288.0525238 568.38284424 -287.70529175 567.70471191 C-287.0258813 566.37753318 -286.34659072 565.05029308 -285.66741943 563.72299194 C-279.60973981 551.8943962 -273.43670182 540.14623136 -267.01953125 528.5078125 C-263.79861484 522.6596177 -260.66497768 516.76543358 -257.52685547 510.87258911 C-252.08002301 500.64891907 -246.51191524 490.50521207 -240.77368164 480.44165039 C-236.9235259 473.67601448 -233.1885667 466.85493182 -229.5 460 C-223.70085277 449.23065219 -217.70918586 438.57973404 -211.66796875 427.94482422 C-208.7813161 422.84839502 -205.92196169 417.73672022 -203.0625 412.625 C-202.48121338 411.58609619 -201.89992676 410.54719238 -201.30102539 409.47680664 C-200.12259089 407.37035293 -198.94428711 405.26382608 -197.76611328 403.15722656 C-194.26405868 396.89671092 -190.75786247 390.63851388 -187.25244141 384.37988281 C-184.32187215 379.14724952 -181.39230956 373.91405778 -178.46484375 368.6796875 C-173.39859925 359.62351269 -168.32881197 350.56985749 -163.20922852 341.54370117 C-151.06597464 320.12973074 -139.24619234 298.53894517 -127.5546875 276.87548828 C-126.0205397 274.03798942 -124.48012371 271.20399233 -122.9375 268.37109375 C-103.40162344 232.47380521 -83.79690776 196.40812332 -66.55566406 159.34130859 C-65.39317363 156.84447181 -64.22579588 154.35023644 -63.05371094 151.85791016 C-45.12577215 113.71476757 -28.87954274 75.13163734 -14.9609375 35.34375 C-14.71461075 34.64164902 -14.468284 33.93954803 -14.2144928 33.21617126 C-13.05620843 29.91306552 -11.90722036 26.60774197 -10.77612305 23.29516602 C-4.11284604 4.11284604 -4.11284604 4.11284604 0 0 Z " fill="#009FDB" transform="translate(958,205)"/>
<path d="M0 0 C6.113714 1.15949748 8.97493054 4.33666882 12.4921875 9.34765625 C14.63155566 12.74572896 16.64620743 16.19439899 18.625 19.6875 C18.97336914 20.29480957 19.32173828 20.90211914 19.68066406 21.52783203 C27.58668581 35.3436588 34.91795989 49.48414322 42.36811829 63.54875183 C47.7995268 73.79709573 53.28984243 84.01388717 58.7734375 94.234375 C60.66351084 97.7593219 62.55098276 101.28564928 64.4375 104.8125 C68.161331 111.77369793 71.89085025 118.73183077 75.625 125.6875 C76.18960937 126.73953613 76.75421875 127.79157227 77.3359375 128.87548828 C83.06913532 139.5461672 88.8703949 150.16693535 94.875 160.6875 C100.53461774 170.60699847 105.89529483 180.66995705 111.22338867 190.76953125 C116.31705284 200.41853254 121.53923836 209.97491712 126.953125 219.44921875 C130.77376449 226.14488945 134.4727692 232.89862819 138.125 239.6875 C142.85067141 248.46445455 147.68729118 257.16951203 152.61157227 265.83642578 C156.80515212 273.22138568 160.94436086 280.63522706 165.0625 288.0625 C171.06816541 298.89149192 177.10240485 309.70397143 183.16015625 320.50390625 C185.48747143 324.6536832 187.80719515 328.80757154 190.12109375 332.96484375 C196.46214753 344.34552005 202.91439193 355.64737869 209.515625 366.87915039 C213.865349 374.31013208 218.00946721 381.83603849 222.09521484 389.41455078 C225.72092448 396.10844408 229.5108168 402.69128546 233.375 409.25 C238.61562785 418.14742151 243.66678216 427.13119373 248.625 436.1875 C254.09171815 446.17002447 259.70017199 456.05439992 265.47216797 465.86450195 C270.2684676 474.03104516 274.90861575 482.27876655 279.52050781 490.55053711 C284.61168248 499.67946628 289.78560542 508.75876421 294.98535156 517.82617188 C297.78095259 522.7047371 300.56907334 527.58757575 303.35803223 532.46994019 C304.37743984 534.25427059 305.39716437 536.0384195 306.41699219 537.82250977 C309.85174472 543.8315418 313.28389773 549.84203435 316.7109375 555.85546875 C320.67229999 562.80522019 324.64377104 569.7491066 328.625 576.6875 C329.22554199 577.73421875 329.82608398 578.7809375 330.44482422 579.859375 C335.78198625 589.14088381 341.14131008 598.39671759 346.8671875 607.4453125 C347.56706787 608.55229492 348.26694824 609.65927734 348.98803711 610.79980469 C350.34784605 612.93849913 351.71558468 615.07217694 353.09204102 617.20019531 C354.00360962 618.6286377 354.00360962 618.6286377 354.93359375 620.0859375 C355.47814209 620.92817871 356.02269043 621.77041992 356.58374023 622.63818359 C356.92735596 623.31445801 357.27097168 623.99073242 357.625 624.6875 C357.295 625.3475 356.965 626.0075 356.625 626.6875 C356.191875 626.213125 355.75875 625.73875 355.3125 625.25 C351.59152534 621.8046531 346.71677494 622.29049604 341.9296875 622.359375 C326.49152455 623.89224224 311.94168242 636.9874865 300.625 646.6875 C299.55014512 647.58933598 298.47459072 648.49033871 297.3984375 649.390625 C288.83405649 656.59693988 280.66899735 664.18775498 272.54150391 671.87988281 C269.62896993 674.62694034 266.69248239 677.34759087 263.75 680.0625 C262.80382813 680.93648437 261.85765625 681.81046875 260.8828125 682.7109375 C259.1552255 684.30251773 257.41451534 685.87122967 255.64477539 687.41601562 C246.63331474 695.34248757 238.27182798 703.93216439 229.8125 712.4375 C228.21442787 714.04059904 226.6161223 715.64346541 225.01757812 717.24609375 C222.09255116 720.17923121 219.168844 723.11366955 216.24682617 726.04980469 C213.37707954 728.93325771 210.50317791 731.81246382 207.625 734.6875 C207.67140625 733.79289062 207.7178125 732.89828125 207.765625 731.9765625 C208.06874216 721.82213776 206.91617927 714.47668443 200.5 706.4375 C192.23945792 697.68061633 182.38023819 694.5079787 170.69482422 694.10522461 C169.79328047 694.06849357 168.89173672 694.03176252 167.96287346 693.99391842 C154.91519932 693.49762049 141.85779598 693.28369187 128.80335283 693.04599237 C125.66051095 692.98837194 122.51770856 692.92872628 119.37490308 692.86915803 C110.84466196 692.70758856 102.3143388 692.55080217 93.78396928 692.39617467 C87.51846358 692.28251156 81.25299898 692.1667609 74.98754883 692.05007935 C34.12917404 691.29054117 -6.72904664 690.62080734 -47.59183741 690.14977479 C-50.39803901 690.11737252 -53.20423656 690.08463827 -56.0104332 690.05180931 C-73.04393571 689.8528061 -90.07744885 689.65851051 -107.11135185 689.49689412 C-113.76187646 689.43350625 -120.4123158 689.36383469 -127.06272614 689.28942466 C-131.63825166 689.23868986 -136.21374621 689.19639197 -140.78941357 689.16083223 C-144.20150098 689.1318469 -147.61341159 689.09024741 -151.02539062 689.05053711 C-152.24565886 689.04373208 -153.46592709 689.03692705 -154.72317314 689.02991581 C-156.38224284 689.00706343 -156.38224284 689.00706343 -158.0748291 688.98374939 C-159.03287697 688.97474074 -159.99092484 688.9657321 -160.97800446 688.95645046 C-163.375 688.6875 -163.375 688.6875 -166.375 686.6875 C-167.3602739 680.25858779 -164.91893399 676.04088839 -161.875 670.625 C-161.46507812 669.86767578 -161.05515625 669.11035156 -160.6328125 668.33007812 C-158.31975041 664.08595966 -155.91891427 659.8949182 -153.50178528 655.7093811 C-149.15767139 648.17278192 -145.12945622 640.5058613 -141.1875 632.75 C-135.03730743 620.73068515 -128.54769241 608.9438115 -121.82568359 597.23339844 C-120.04614148 594.11036492 -118.30962013 590.96505575 -116.57861328 587.81494141 C-107.40075113 571.11607254 -97.4938543 554.83316946 -87.66333008 538.51342773 C-87.07575928 537.53704346 -86.48818848 536.56065918 -85.8828125 535.5546875 C-85.30563477 534.59788086 -84.72845703 533.64107422 -84.13378906 532.65527344 C-82.90326784 530.57889698 -81.6989226 528.48688592 -80.51464844 526.38378906 C-79.90911133 525.3109668 -79.30357422 524.23814453 -78.6796875 523.1328125 C-77.87120361 521.67512451 -77.87120361 521.67512451 -77.04638672 520.18798828 C-75.29683247 517.57055699 -74.04798188 516.31539046 -71.375 514.6875 C-68.79566765 514.32114983 -68.79566765 514.32114983 -65.82028198 514.33346558 C-64.690177 514.33078674 -63.56007202 514.32810791 -62.39572144 514.3253479 C-61.16024567 514.33770477 -59.9247699 514.35006165 -58.65185547 514.36279297 C-57.34750549 514.36396118 -56.04315552 514.36512939 -54.69927979 514.36633301 C-51.12498002 514.3697426 -47.55099578 514.39149837 -43.976789 514.41624975 C-40.23814181 514.43873206 -36.49947597 514.44342173 -32.76077271 514.44973755 C-25.6800232 514.46422333 -18.59941568 514.4931549 -11.51873982 514.52798474 C1.1704722 514.58993341 13.85976964 514.62745594 26.54908836 514.65957749 C31.004325 514.67142932 35.45947906 514.68963401 39.91466928 514.71309257 C42.01600637 514.72357418 44.11733888 514.73187591 46.21868896 514.73925781 C48.78473578 514.74847548 51.35077284 514.76139528 53.91677856 514.77859497 C55.0412439 514.78155579 56.16570923 514.7845166 57.32424927 514.78756714 C58.30537249 514.79238539 59.2864957 514.79720364 60.29734993 514.80216789 C62.64982022 514.84286605 62.64982022 514.84286605 64.625 513.6875 C64.11857255 508.53232824 62.98687161 504.84485042 60.5 500.3125 C60.15654541 499.68512939 59.81309082 499.05775879 59.45922852 498.41137695 C55.36821549 491.04616467 50.9693099 483.85603762 46.61108398 476.6472168 C40.70479481 466.86971264 34.99336342 456.98720295 29.3046875 447.08203125 C25.79625471 440.97410998 22.24583123 434.89144204 18.6875 428.8125 C2.21465422 400.62262579 -13.7709166 372.16734567 -29.26953125 343.4296875 C-31.27250161 339.71798954 -33.28962154 336.01476629 -35.32421875 332.3203125 C-42.67504312 318.96388058 -49.71337995 305.45948447 -56.6824646 291.9016571 C-58.54237997 288.28842762 -60.42374672 284.68763135 -62.328125 281.09765625 C-76.50364742 254.35101497 -89.65018597 226.98192111 -102.12841797 199.40332031 C-102.93799999 197.63955408 -103.77427832 195.88771149 -104.64111328 194.15136719 C-106.23591334 190.88008718 -107.35473671 188.44230751 -107.453125 184.77734375 C-105.79437093 180.02345076 -103.50169008 175.68104762 -101.125 171.25 C-100.5892334 170.23719971 -100.0534668 169.22439941 -99.50146484 168.1809082 C-95.26203316 160.2185832 -90.8469199 152.36052955 -86.37402344 144.52758789 C-82.25930501 137.30731805 -78.29275505 130.01628705 -74.375 122.6875 C-69.44040866 113.46130746 -64.37799801 104.32154615 -59.19921875 95.23046875 C-55.33460455 88.42987337 -51.58148312 81.57541821 -47.875 74.6875 C-43.09084033 65.79851981 -38.18738378 56.98670891 -33.19067383 48.21557617 C-29.92287222 42.46711487 -26.73500334 36.6826232 -23.60205078 30.85961914 C-7.8487317 1.59881572 -7.8487317 1.59881572 0 0 Z " fill="#A04E97" transform="translate(958.375,659.3125)"/>
<path d="M0 0 C2.3828125 0.17016602 2.3828125 0.17016602 5 1 C6.5546875 2.84350586 6.5546875 2.84350586 7.875 5.27734375 C8.3803125 6.18597168 8.885625 7.09459961 9.40625 8.03076172 C10.19515625 9.50053467 10.19515625 9.50053467 11 11 C12.12402999 13.00184705 13.24906393 15.00313065 14.375 17.00390625 C15.58490723 19.18923352 16.79317131 21.37547113 18 23.5625 C19.33117381 25.96792305 20.66367808 28.37260842 21.99609375 30.77734375 C22.33144638 31.38296143 22.66679901 31.9885791 23.01231384 32.61254883 C26.34394797 38.62702543 29.70037094 44.62752148 33.0625 50.625 C33.92198242 52.15846069 33.92198242 52.15846069 34.79882812 53.72290039 C35.95445952 55.78441551 37.11022081 57.84585782 38.26611328 59.90722656 C41.1793914 65.10370745 44.08952827 70.30194696 47 75.5 C48.1666518 77.58334166 49.33331846 79.66667499 50.5 81.75 C57.5 94.25 57.5 94.25 59.24951172 97.37451172 C60.41736997 99.45971692 61.58566493 101.54467759 62.75439453 103.62939453 C65.6564441 108.80718111 68.55100745 113.9888674 71.4296875 119.1796875 C78.91078548 132.6465129 86.61927555 145.95813718 94.50390625 159.19140625 C95.10090332 160.19574707 95.69790039 161.20008789 96.31298828 162.23486328 C97.80130191 164.67431917 99.36774147 167.03387862 100.96484375 169.40234375 C103.05750478 172.79616847 103.83769597 174.95811696 103 179 C101.58101222 181.92236471 99.81671757 184.56146434 98 187.25 C96.88999649 188.94795823 95.78203273 190.64725112 94.67578125 192.34765625 C94.07975098 193.25789551 93.4837207 194.16813477 92.86962891 195.10595703 C89.55081776 200.2432236 86.37741965 205.4696059 83.1875 210.6875 C78.02138361 219.11031552 72.81585552 227.50634742 67.5625 235.875 C61.41890598 245.67116913 55.39724076 255.53785039 49.41088867 265.43041992 C44.60331502 273.37299094 39.75283091 281.28779336 34.875 289.1875 C29.08144094 298.57725652 23.36720889 308.01114166 17.70556641 317.48095703 C13.43863604 324.61474861 9.13361642 331.72454356 4.80914307 338.82354736 C-3.04308005 351.71570945 -10.77171022 364.67848315 -18.46536255 377.66578674 C-18.85448822 378.32263962 -19.24361389 378.97949249 -19.64453125 379.65625 C-20.21818924 380.62467079 -20.21818924 380.62467079 -20.80343628 381.61265564 C-23.85005255 386.75318293 -26.91854029 391.88028024 -30 397 C-38.00374732 410.30542955 -45.9097366 423.66926098 -53.82897949 437.02508545 C-54.95522885 438.92449389 -56.08160243 440.82382862 -57.20800781 442.72314453 C-61.20313045 449.45997763 -65.19559883 456.19837801 -69.18603516 462.93798828 C-70.90746319 465.84379587 -72.63119549 468.74822386 -74.35546875 471.65234375 C-80.19766165 481.50227569 -85.97179763 491.38858044 -91.6875 501.3125 C-92.32115479 502.41142578 -92.95480957 503.51035156 -93.60766602 504.64257812 C-97.07089814 510.64689606 -97.07089814 510.64689606 -100.52197266 516.65820312 C-112.2000626 537.04916366 -112.2000626 537.04916366 -116 540 C-119.54866868 540.41367478 -121.34479986 540.46554427 -124.29833984 538.36694336 C-125.01199707 537.61550049 -125.7256543 536.86405762 -126.4609375 536.08984375 C-127.26273438 535.26419922 -128.06453125 534.43855469 -128.890625 533.58789062 C-129.71046875 532.71326172 -130.5303125 531.83863281 -131.375 530.9375 C-133.00538273 529.23594977 -134.63816791 527.53669801 -136.2734375 525.83984375 C-137.06975586 525.01154053 -137.86607422 524.1832373 -138.68652344 523.32983398 C-141.3653058 520.63211131 -144.16771002 518.14131365 -147.05712891 515.67358398 C-150.46489411 512.73814412 -153.7247025 509.64401171 -157 506.5625 C-158.0509082 505.57636719 -158.0509082 505.57636719 -159.12304688 504.5703125 C-163.26028845 500.67598445 -167.31767664 496.72019449 -171.30078125 492.66796875 C-173.03570697 490.96494971 -174.83680143 489.38845569 -176.6875 487.8125 C-181.09636887 484.02974269 -185.12716743 479.89996228 -189.20825195 475.7722168 C-192.75964761 472.1959681 -196.39926488 468.80313485 -200.2421875 465.5390625 C-202.07927024 463.9305945 -203.78907787 462.24161132 -205.5 460.5 C-208.44264324 457.51106799 -211.52355707 454.75347702 -214.69921875 452.015625 C-218.04156587 449.08752464 -221.29886005 446.06799803 -224.56591797 443.05664062 C-227.44441141 440.40912049 -230.35052288 437.80362688 -233.3125 435.25 C-243.14198244 426.71603512 -243.14198244 426.71603512 -245 423 C-245.41060928 417.13502861 -244.95655242 413.92725745 -241.8125 408.8125 C-241.46010254 408.22774902 -241.10770508 407.64299805 -240.74462891 407.04052734 C-239.51570969 405.01449942 -238.25955503 403.00711449 -237 401 C-236.02141132 399.42362636 -235.04358373 397.84678007 -234.06640625 396.26953125 C-232.44452762 393.65385072 -230.82140555 391.03900141 -229.19360352 388.42700195 C-223.23119059 378.83271401 -217.57463861 369.06736396 -211.91259766 359.29394531 C-208.43847265 353.31068075 -204.9375696 347.34311244 -201.4375 341.375 C-201.07547485 340.7574585 -200.71344971 340.13991699 -200.3404541 339.50366211 C-195.23000185 330.78673796 -190.09980923 322.08167235 -184.95288086 313.38623047 C-180.44756307 305.76978266 -175.97199729 298.1360343 -171.5 290.5 C-166.51633972 281.99028981 -161.52324508 273.48643187 -156.5 265 C-149.35942484 252.93431062 -142.27503697 240.83581642 -135.18945312 228.73779297 C-131.98043483 223.2589595 -128.76896725 217.78156197 -125.55764771 212.30407715 C-124.49921425 210.49865971 -123.44087493 208.69318713 -122.38256836 206.88769531 C-119.16752516 201.40280967 -115.95216717 195.91810947 -112.73550415 190.43417358 C-105.8115604 178.62982662 -98.89125131 166.82347775 -92 155 C-84.74674861 142.55543043 -77.46102122 130.12998798 -70.17333984 117.70556641 C-66.96728389 112.23951851 -63.76288894 106.772497 -60.55838013 101.30554199 C-59.5004998 99.50085264 -58.44252555 97.69621838 -57.38452148 95.89160156 C-54.15869462 90.38927548 -50.93333405 84.88667807 -47.7098999 79.38294983 C-39.87544465 66.00634853 -32.0305454 52.63626271 -24.1328125 39.296875 C-21.93357926 35.58193522 -19.74199208 31.86260037 -17.5546875 28.140625 C-2.43801999 2.43801999 -2.43801999 2.43801999 0 0 Z " fill="#A14E97" transform="translate(834,872)"/>
</svg>
